<svg version="1.2" baseProfile="tiny-ps" xmlns="http://www.w3.org/2000/svg" viewBox="0 0 513 513" width="513" height="513"><title>dimantions</title><style>tspan { white-space:pre }.shp0 { fill: #ffffff } </style><path fill-rule="evenodd" class="shp0" d="M498.85 456.41L456.41 498.84C438.9 516.38 410.33 516.38 392.78 498.86L383.28 489.36L436.33 436.32C442.18 430.46 442.18 420.97 436.33 415.11C430.47 409.25 420.97 409.25 415.11 415.11L362.07 468.15L340.86 446.93L319.65 425.72L298.43 404.51L351.47 351.46C357.32 345.6 357.33 336.11 351.47 330.25C345.61 324.39 336.11 324.39 330.25 330.25L277.22 383.3L256.01 362.08L213.58 319.65L266.62 266.62C272.48 260.76 272.48 251.27 266.62 245.41C260.76 239.55 251.27 239.55 245.41 245.41L192.37 298.44L171.16 277.22L149.95 256.01L128.73 234.79L181.76 181.76C187.62 175.9 187.62 166.41 181.76 160.55C175.9 154.69 166.41 154.69 160.55 160.55L107.52 213.58L65.09 171.15L43.88 149.94L96.9 96.9C102.76 91.04 102.76 81.55 96.9 75.69C91.05 69.83 81.55 69.83 75.69 75.69L22.67 128.72L13.18 119.24C4.69 110.76 0 99.45 0 87.42C0 75.41 4.69 64.1 13.18 55.6L55.61 13.18C72.6 -3.82 102.26 -3.79 119.25 13.18L498.85 392.77C516.38 410.34 516.38 438.87 498.85 456.41ZM435.18 182.16L383.28 234.79L277.22 128.71L329.11 76.09C358.34 46.87 405.93 46.84 435.18 76.09C464.41 105.33 464.41 152.92 435.18 182.16ZM512 74.28C512 94.31 504.19 113.15 490.03 127.3L486.97 130.36C487.29 103.06 477.17 75.66 456.39 54.88C436.59 35.08 410.22 24.16 382.16 24.16C381.74 24.16 381.35 24.28 380.94 24.28L383.97 21.25C412.27 -7.08 461.73 -7.08 490.03 21.25C504.19 35.4 512 54.24 512 74.28ZM126.13 453.08L121.13 478.08L103.43 483.75C103.51 464.28 96.17 444.98 81.58 430.42C67.27 416.11 48.01 408.77 28.15 408.87L33.92 390.88L58.92 385.87C78.02 382.06 96.77 387.76 110.51 401.49C124.24 415.23 129.94 434.04 126.13 453.08ZM154.65 463.42C154.54 460.42 168.45 417.01 131.72 380.28C94.92 343.5 51.58 357.46 48.58 357.35L128.72 277.21L234.79 383.28L154.65 463.42ZM72.22 493.75L19.57 511.28C14.28 512.99 8.39 511.6 4.39 507.6C0.42 503.63 -1 497.78 0.72 492.43L18.24 439.83C18.81 439.7 19.31 439.39 19.9 439.28C34.59 436.44 49.77 441.02 60.37 451.63C71.68 462.92 75.74 478.89 72.22 493.75Z" /></svg>