<svg version="1.2" baseProfile="tiny-ps" xmlns="http://www.w3.org/2000/svg" viewBox="0 0 1000 1000" width="1000" height="1000"><title>drag and drop</title><style>tspan { white-space:pre }.shp0 { fill: #ffffff } </style><path fill-rule="evenodd" class="shp0" d="M293 467C293 417.29 333.29 377 383 377L785 377C834.71 377 875 417.29 875 467L875 785C875 834.71 834.71 875 785 875L383 875C333.29 875 293 834.71 293 785L293 467ZM540 511L539 753L597 703.37L622.25 764.44L664.25 744.94L638 687.15L709 677.88L540 511ZM141 516.17C141 506.63 148.74 498.9 158.28 498.9C167.82 498.9 175.55 506.63 175.55 516.17L175.55 554.79C175.55 564.33 167.82 572.07 158.28 572.07C148.74 572.07 141 564.33 141 554.79L141 516.17ZM141 404.38C141 394.84 148.74 387.1 158.28 387.1C167.82 387.1 175.55 394.84 175.55 404.38L175.55 443C175.55 452.54 167.82 460.28 158.28 460.28C148.74 460.28 141 452.54 141 443L141 404.38ZM141 292.59C141 283.05 148.74 275.31 158.28 275.31C167.82 275.31 175.55 283.05 175.55 292.59L175.55 331.21C175.55 340.75 167.82 348.49 158.28 348.49C148.74 348.49 141 340.75 141 331.21L141 292.59ZM730.45 296.65C730.45 287.11 738.18 279.38 747.72 279.38C757.26 279.38 765 287.11 765 296.65L765 335.27C765 344.82 757.26 352.55 747.72 352.55C738.18 352.55 730.45 344.82 730.45 335.27L730.45 296.65ZM583.08 131C592.63 131 600.36 138.74 600.36 148.28C600.36 157.82 592.63 165.55 583.08 165.55L544.47 165.55C534.92 165.55 527.19 157.82 527.19 148.28C527.19 138.74 534.92 131 544.47 131L583.08 131ZM765 225.51C765 235.06 757.26 242.79 747.72 242.79C738.18 242.79 730.45 235.06 730.45 225.51L730.45 165.55L656.26 165.55C646.72 165.55 638.98 157.82 638.98 148.28C638.98 138.74 646.72 131 656.26 131L747.72 131C757.26 131 765 138.74 765 148.28L765 225.51ZM473.33 131C482.87 131 490.6 138.74 490.6 148.28C490.6 157.82 482.87 165.55 473.33 165.55L434.71 165.55C425.17 165.55 417.43 157.82 417.43 148.28C417.43 138.74 425.17 131 434.71 131L473.33 131ZM365.6 131C375.14 131 382.88 138.74 382.88 148.28C382.88 157.82 375.14 165.55 365.6 165.55L326.98 165.55C317.44 165.55 309.7 157.82 309.7 148.28C309.7 138.74 317.44 131 326.98 131L365.6 131ZM141 150.31C141 149.97 141.01 149.63 141.03 149.29C141.01 148.96 141 148.62 141 148.28C141 138.74 148.74 131 158.28 131L251.78 131C261.32 131 269.05 138.74 269.05 148.28C269.05 157.82 261.32 165.55 251.78 165.55L175.55 165.55L175.55 221.45C175.55 230.99 167.82 238.73 158.28 238.73C148.74 238.73 141 230.99 141 221.45L141 150.31ZM141 627.96C141 618.42 148.74 610.69 158.28 610.69C167.82 610.69 175.55 618.42 175.55 627.96L175.55 683.86L251.78 683.86C261.32 683.86 269.05 691.6 269.05 701.14C269.05 710.68 261.32 718.41 251.78 718.41L158.28 718.41C148.74 718.41 141 710.68 141 701.14C141 700.8 141.01 700.46 141.03 700.12C141.01 699.78 141 699.44 141 699.1L141 627.96Z" /></svg>