<svg version="1.2" baseProfile="tiny-ps" xmlns="http://www.w3.org/2000/svg" viewBox="0 0 512 512" width="512" height="512"><title>effects</title><style>tspan { white-space:pre }.shp0 { fill: #ffffff } </style><path class="shp0" d="M163.66 293.24L209.46 209.49L293.2 163.68C298.01 161.05 301 156 301 150.52C301 145.04 298.01 139.99 293.2 137.36L209.46 91.55L163.66 7.8C161.03 2.99 155.98 0 150.5 0C145.02 0 139.97 2.99 137.34 7.8L91.54 91.55L7.8 137.36C2.99 139.99 0 145.04 0 150.52C0 156 2.99 161.05 7.8 163.68L91.54 209.49L137.34 293.24C139.97 298.05 145.02 301.04 150.5 301.04C155.98 301.04 161.03 298.05 163.66 293.24ZM504.2 283.12L448.43 252.61L417.93 196.84C415.3 192.03 410.26 189.04 404.77 189.04C399.29 189.04 394.24 192.03 391.61 196.84L361.11 252.61L305.35 283.12C300.54 285.75 297.55 290.8 297.55 296.28C297.55 301.76 300.54 306.81 305.35 309.44L361.11 339.94L391.61 395.72C394.24 400.53 399.29 403.52 404.77 403.52C410.26 403.52 415.3 400.53 417.93 395.72L448.43 339.94L504.2 309.44C509.01 306.81 512 301.76 512 296.28C512 290.8 509.01 285.75 504.2 283.12L504.2 283.12ZM293.68 423.57L258.57 404.37L239.37 369.26C236.75 364.45 231.7 361.45 226.21 361.45C220.73 361.45 215.68 364.45 213.05 369.26L193.86 404.37L158.75 423.57C153.95 426.2 150.95 431.25 150.95 436.73C150.95 442.21 153.95 447.25 158.75 449.89L193.86 469.09L213.05 504.2C215.68 509.01 220.73 512 226.21 512C231.7 512 236.75 509.01 239.37 504.2L258.57 469.09L293.68 449.89C298.48 447.25 301.48 442.21 301.48 436.73C301.48 431.25 298.48 426.2 293.68 423.57L293.68 423.57Z" /></svg>