<svg version="1.2" baseProfile="tiny-ps" xmlns="http://www.w3.org/2000/svg" viewBox="0 0 512 512" width="512" height="512">
	<title>New Project</title>
	<style>
		tspan { white-space:pre }
		.s0 { fill: none;stroke: #808080;stroke-width: 10 } 
	</style>
	<path id="Shape 1" class="s0" d="m288.54 393.54c-1.64 1.64-3.74 2.46-6.29 2.46h-52.5c-2.55 0-4.65-0.82-6.29-2.46c-1.64-1.64-2.46-3.73-2.46-6.29v-52.5c0-2.55 0.82-4.65 2.46-6.29c1.64-1.64 3.73-2.46 6.29-2.46h52.5c2.55 0 4.65 0.82 6.29 2.46c1.64 1.64 2.46 3.74 2.46 6.29v52.5c0 2.55-0.82 4.65-2.46 6.29zm69.04-167.89c-2.28 6.75-4.83 12.26-7.66 16.54c-2.83 4.29-6.88 8.66-12.17 13.13c-5.29 4.47-9.48 7.66-12.58 9.57c-3.1 1.91-7.57 4.51-13.4 7.79c-6.02 3.47-10.98 7.98-14.9 13.54c-3.92 5.56-5.88 10.07-5.88 13.54c0 2.55-0.82 4.65-2.46 6.29c-1.64 1.64-3.74 2.46-6.29 2.46h-52.5c-2.55 0-4.65-0.82-6.29-2.46c-1.64-1.64-2.46-3.73-2.46-6.29v-9.84c0-12.21 4.79-23.65 14.36-34.32c9.57-10.66 20.1-18.55 31.58-23.65c8.75-4.01 14.95-8.11 18.59-12.3c3.64-4.19 5.47-9.75 5.47-16.68c0-6.02-3.42-11.39-10.25-16.13c-6.84-4.74-14.63-7.11-23.38-7.11c-9.48 0-17.32 2.19-23.52 6.56c-6.02 4.38-13.86 12.76-23.52 25.16c-1.64 2.19-3.92 3.28-6.84 3.28c-2.19 0-3.92-0.55-5.2-1.64l-36.09-27.34c-4.2-3.28-4.92-7.11-2.19-11.48c23.33-38.83 57.15-58.24 101.45-58.24c15.86 0 31.35 3.74 46.48 11.21c15.13 7.48 27.75 18.05 37.87 31.72c10.12 13.67 15.18 28.53 15.18 44.57c0 8.02-1.14 15.41-3.42 22.15zm3.83-151.48c-32.18-18.77-67.31-28.16-105.41-28.16c-38.1 0-73.24 9.39-105.41 28.16c-32.18 18.78-57.65 44.25-76.43 76.43c-18.78 32.18-28.16 67.31-28.16 105.41c0 38.1 9.39 73.24 28.16 105.41c18.77 32.18 44.25 57.65 76.43 76.43c32.17 18.77 67.31 28.16 105.41 28.16c38.1 0 73.23-9.39 105.41-28.16c32.17-18.77 57.65-44.25 76.43-76.43c18.77-32.17 28.16-67.31 28.16-105.41c0-38.1-9.39-73.23-28.16-105.41c-18.78-32.17-44.25-57.65-76.43-76.43z" />
</svg>