<svg version="1.2" baseProfile="tiny-ps" xmlns="http://www.w3.org/2000/svg" viewBox="0 0 512 512" width="512" height="512">
	<title>help_icon-svg</title>
	<style>
		tspan { white-space:pre }
		.s0 { fill: none;stroke: #808080;stroke-width: 12.5 } 
	</style>
	<path id="Shape 1" class="s0" d="m290.4 401.4c-1.73 1.73-3.95 2.6-6.65 2.6h-55.5c-2.7 0-4.91-0.87-6.65-2.6c-1.73-1.73-2.6-3.95-2.6-6.65v-55.5c0-2.7 0.87-4.91 2.6-6.65c1.73-1.73 3.95-2.6 6.65-2.6h55.5c2.7 0 4.91 0.87 6.65 2.6c1.73 1.73 2.6 3.95 2.6 6.65v55.5c0 2.7-0.87 4.91-2.6 6.65zm72.99-177.48c-2.41 7.13-5.11 12.96-8.09 17.49c-2.99 4.53-7.28 9.16-12.86 13.88c-5.59 4.72-10.02 8.09-13.3 10.12c-3.28 2.02-8 4.77-14.16 8.24c-6.36 3.66-11.61 8.43-15.75 14.31c-4.15 5.88-6.21 10.65-6.21 14.31c0 2.7-0.87 4.91-2.6 6.65c-1.73 1.73-3.95 2.6-6.65 2.6h-55.5c-2.7 0-4.91-0.87-6.65-2.6c-1.73-1.73-2.6-3.95-2.6-6.65v-10.41c0-12.91 5.06-25 15.18-36.28c10.12-11.27 21.25-19.61 33.39-25c9.25-4.24 15.8-8.57 19.66-13.01c3.85-4.43 5.78-10.31 5.78-17.63c0-6.36-3.61-12.04-10.84-17.05c-7.23-5.01-15.46-7.52-24.71-7.52c-10.02 0-18.31 2.31-24.86 6.94c-6.36 4.63-14.65 13.49-24.86 26.59c-1.73 2.31-4.15 3.47-7.23 3.47c-2.31 0-4.15-0.58-5.49-1.73l-38.16-28.91c-4.44-3.47-5.2-7.52-2.31-12.14c24.67-41.05 60.41-61.57 107.24-61.57c16.77 0 33.14 3.95 49.14 11.85c15.99 7.9 29.34 19.08 40.04 33.53c10.7 14.45 16.04 30.16 16.04 47.12c0 8.48-1.21 16.29-3.61 23.41zm4.05-160.14c-34.01-19.85-71.16-29.77-111.43-29.77c-40.28 0-77.42 9.93-111.43 29.77c-34.01 19.85-60.95 46.78-80.79 80.79c-19.85 34.01-29.77 71.16-29.77 111.43c0 40.28 9.92 77.42 29.77 111.43c19.85 34.01 46.78 60.95 80.79 80.79c34.01 19.85 71.15 29.77 111.43 29.77c40.27 0 77.42-9.93 111.43-29.77c34.01-19.85 60.94-46.78 80.79-80.79c19.85-34.01 29.77-71.15 29.77-111.43c0-40.27-9.93-77.42-29.77-111.43c-19.85-34.01-46.78-60.94-80.79-80.79z" />
</svg>