<svg version="1.2" baseProfile="tiny-ps" xmlns="http://www.w3.org/2000/svg" viewBox="0 0 512 512" width="512" height="512"><title>lens</title><style>tspan { white-space:pre }.shp0 { fill: #ffffff } </style><path class="shp0" d="M499.83 178.08C498.42 173.67 494.31 170.67 489.67 170.67L348.54 170.67C344.73 170.67 341.19 172.71 339.29 176.02C337.4 179.33 337.4 183.41 339.33 186.71L456.63 388C458.52 391.25 461.98 393.26 465.75 393.29C465.77 393.29 465.81 393.29 465.83 393.29C469.56 393.29 473.02 391.34 474.96 388.15C499.19 348.07 512 302.38 512 256C512 229.52 507.9 203.31 499.83 178.08ZM228.58 143.99C230.5 147.29 234.02 149.33 237.83 149.33L471.48 149.33C475.25 149.33 478.73 147.34 480.65 144.12C482.58 140.88 482.65 136.87 480.83 133.56C445.29 68.39 383.38 21.92 310.96 6.06C306.33 5.08 301.75 7.13 299.44 11.13L228.6 133.31C226.69 136.62 226.69 140.69 228.58 143.99ZM376.38 292.67C374.48 289.39 370.96 287.36 367.17 287.36C367.17 287.36 367.17 287.36 367.15 287.36C363.35 287.36 359.85 289.4 357.94 292.68L240.25 495.65C238.38 498.91 238.33 502.91 240.17 506.19C242 509.48 245.42 511.55 249.17 511.67L251.56 511.8C253.02 511.91 254.5 512 256 512C328.21 512 397.5 481.03 446.1 427.04C449.19 423.59 449.71 418.54 447.38 414.54L376.38 292.67ZM172.94 336.01C174.85 332.72 174.85 328.66 172.96 325.35L56.42 122.42C54.54 119.16 51.08 117.13 47.33 117.06C43.44 116.58 40.04 118.92 38.08 122.14C13.17 162.6 0 208.88 0 256C0 282.48 4.1 308.69 12.17 333.92C13.58 338.33 17.69 341.33 22.33 341.33L163.71 341.33C167.52 341.33 171.04 339.3 172.94 336.01ZM283.42 368.01C281.5 364.71 277.98 362.67 274.17 362.67L40.52 362.67C36.75 362.67 33.27 364.66 31.35 367.88C29.42 371.13 29.35 375.13 31.17 378.44C66.71 443.61 128.62 490.08 201.04 505.94C201.81 506.1 202.58 506.19 203.33 506.19C207.08 506.19 210.63 504.21 212.56 500.87L283.39 378.69C285.31 375.38 285.31 371.31 283.42 368.01ZM136.13 218.38C138.02 221.68 141.54 223.72 145.35 223.73L145.37 223.73C149.19 223.73 152.69 221.71 154.6 218.42L271.75 16.35C273.63 13.09 273.67 9.09 271.83 5.81C270 2.52 266.58 0.45 262.83 0.33L260.44 0.2C258.98 0.09 257.5 0 256 0C184.54 0 115.75 30.43 67.23 83.49C64.1 86.92 63.54 91.97 65.85 96L136.13 218.38Z" /></svg>