<svg version="1.2" baseProfile="tiny-ps" xmlns="http://www.w3.org/2000/svg" viewBox="0 0 1168 1732" width="1168" height="1732"><title>sorry page</title><defs><linearGradient id="grd1" gradientUnits="userSpaceOnUse"  x1="393.688" y1="745.729" x2="393.688" y2="690.644"><stop offset="0" stop-color="#ffffff" stop-opacity="0.1" /><stop offset="1" stop-color="#ffffff" stop-opacity="0.4" /></linearGradient></defs><style>tspan { white-space:pre }.shp0 { fill: #ff9e0f } .shp1 { fill: #e6e9f2 } .shp2 { fill: #181818 } .shp3 { fill: none;stroke: #c0ccd8;stroke-width: 2 } .shp4 { fill: none;stroke: #c0ccd8;stroke-linejoin:round;stroke-width: 2 } .shp5 { fill: none;stroke: #c0ccd8;stroke-width: 6 } .shp6 { fill: #c0ccd8 } .shp7 { fill: none;stroke: #c0ccd8;stroke-linecap:round;stroke-linejoin:round;stroke-width: 2 } .shp8 { fill: #373737 } .shp9 { fill: #606060 } .shp10 { fill: none;stroke: #bfccd8;stroke-width: 3 } .shp11 { fill: #717a91 } .shp12 { fill: #8e9db2 } .shp13 { fill: #f1e1de } .shp14 { fill: #e6e8ef } .shp15 { fill: none;stroke: #3d3d3d;stroke-width: 2;stroke-dasharray: 6,4 } .shp16 { fill: #d88100 } .shp17 { fill: #5d5e5e } .shp18 { fill: none;stroke: #373737;stroke-width: 2 } .shp19 { fill: #838383 } .shp20 { fill: none;stroke: #838383;stroke-width: 2 } .shp21 { fill: none;stroke: #5c6c93;stroke-width: 2 } .shp22 { fill: none;stroke: #465477;stroke-width: 2;stroke-dasharray: 6,4 } .shp23 { fill: #e6e8ef;stroke: #3d3d3d;stroke-linejoin:round;stroke-width: 2;stroke-dasharray: 6,4 } .shp24 { fill: #ffffff } .shp25 { fill: #feeae6 } .shp26 { fill: #3d3d3d } .shp27 { fill: #4d4d4d;stroke: #3d3d3d;stroke-width: 2 } .shp28 { fill: none;stroke: #bfccd8;stroke-linecap:round;stroke-linejoin:round;stroke-width: 7 } .shp29 { fill: #f3f3f3 } .shp30 { fill: #5d5d5d } .shp31 { fill: #d5d5d5 } .shp32 { fill: #979797 } .shp33 { fill: #cececf } .shp34 { fill: #a1a1a1 } .shp35 { fill: #c6c6c6 } .shp36 { fill: #b9b9b9 } .shp37 { fill: url(#grd1) } .shp38 { fill: #e8eaef } .shp39 { fill: #c6d2e0 } .shp40 { fill: #475577 } </style><path fill-rule="evenodd" class="shp0" d="M346.18 1250.86C342.13 1250.86 338.77 1249.86 336.1 1247.86C333.43 1245.86 331.38 1243.16 329.95 1239.78L337.1 1236.78C339.05 1241.3 342.1 1243.57 346.25 1243.57C348.15 1243.57 349.68 1243.19 350.82 1242.42C351.97 1241.61 352.54 1240.59 352.54 1239.35C352.54 1237.44 351.13 1236.13 348.32 1235.42L341.24 1233.7C338.91 1233.08 336.67 1231.94 334.53 1230.27C332.38 1228.56 331.31 1226.22 331.31 1223.27C331.31 1219.93 332.76 1217.24 335.67 1215.19C338.58 1213.14 341.98 1212.12 345.89 1212.12C349.13 1212.12 352.01 1212.86 354.54 1214.33C357.11 1215.81 359.04 1218.15 360.33 1221.34L353.32 1224.27C351.94 1221.03 349.39 1219.41 345.68 1219.41C343.87 1219.41 342.36 1219.77 341.17 1220.48C340.03 1221.2 339.46 1222.1 339.46 1223.2C339.46 1224.82 340.82 1225.94 343.53 1226.56L350.47 1228.2C353.94 1229.01 356.52 1230.42 358.18 1232.42C359.85 1234.37 360.69 1236.61 360.69 1239.14C360.69 1242.52 359.33 1245.33 356.61 1247.57C353.9 1249.76 350.42 1250.86 346.18 1250.86ZM368.05 1217.69C371.57 1213.98 376.05 1212.12 381.49 1212.12C386.92 1212.12 391.4 1213.98 394.92 1217.69C398.45 1221.36 400.21 1225.96 400.21 1231.49C400.21 1237.02 398.45 1241.64 394.92 1245.35C391.4 1249.02 386.92 1250.86 381.49 1250.86C376.05 1250.86 371.57 1249.02 368.05 1245.35C364.52 1241.64 362.76 1237.02 362.76 1231.49C362.76 1225.96 364.52 1221.36 368.05 1217.69ZM373.91 1240.21C376.05 1242.35 378.58 1243.42 381.49 1243.42C384.39 1243.42 386.89 1242.35 388.99 1240.21C391.13 1238.02 392.21 1235.11 392.21 1231.49C392.21 1227.87 391.13 1224.98 388.99 1222.84C386.89 1220.65 384.39 1219.55 381.49 1219.55C378.58 1219.55 376.05 1220.65 373.91 1222.84C371.81 1224.98 370.76 1227.87 370.76 1231.49C370.76 1235.11 371.81 1238.02 373.91 1240.21ZM412.79 1229.84L412.79 1249.71L404.79 1249.71L404.79 1213.26L412.51 1213.26L412.51 1217.23C413.27 1216.19 414.36 1215.25 415.79 1214.41C417.99 1213.07 420.13 1212.4 422.23 1212.4C424.23 1212.4 426.18 1212.81 428.09 1213.62L425.09 1221.05C423.85 1220.58 422.54 1220.34 421.15 1220.34C418.96 1220.34 417.01 1221.22 415.29 1222.98C413.63 1224.7 412.79 1226.99 412.79 1229.84ZM412.51 1217.23C412.1 1217.79 411.79 1218.37 411.58 1218.98L412.51 1218.98L412.51 1217.23ZM438.74 1229.84L438.74 1249.71L430.73 1249.71L430.73 1213.26L438.45 1213.26L438.45 1217.23C439.21 1216.19 440.31 1215.25 441.74 1214.41C443.93 1213.07 446.08 1212.4 448.17 1212.4C449.85 1212.4 451.5 1212.69 453.12 1213.26L461.68 1213.26L471.72 1237.46L471.33 1238.42L472.12 1238.42L471.72 1237.46L481.48 1213.26L490.2 1213.26L467.61 1265.15L459.25 1265.15L467.69 1246.78L453.6 1214.71L451.03 1221.05C449.79 1220.58 448.48 1220.34 447.1 1220.34C444.91 1220.34 442.95 1221.22 441.24 1222.98C439.57 1224.7 438.74 1226.99 438.74 1229.84ZM438.45 1217.23C438.05 1217.79 437.74 1218.37 437.52 1218.98L438.45 1218.98L438.45 1217.23ZM499.71 1248.56C498.74 1249.53 497.58 1250.01 496.23 1250.01C494.88 1250.01 493.73 1249.53 492.76 1248.56C491.79 1247.59 491.3 1246.43 491.3 1245.08C491.3 1243.73 491.79 1242.58 492.76 1241.61C493.73 1240.64 494.88 1240.15 496.23 1240.15C497.58 1240.15 498.74 1240.64 499.71 1241.61C500.68 1242.58 501.16 1243.73 501.16 1245.08C501.16 1246.43 500.68 1247.59 499.71 1248.56ZM514.37 1248.56C513.4 1249.53 512.24 1250.01 510.89 1250.01C509.55 1250.01 508.39 1249.53 507.42 1248.56C506.45 1247.59 505.96 1246.43 505.96 1245.08C505.96 1243.73 506.45 1242.58 507.42 1241.61C508.39 1240.64 509.55 1240.15 510.89 1240.15C512.24 1240.15 513.4 1240.64 514.37 1241.61C515.34 1242.58 515.82 1243.73 515.82 1245.08C515.82 1246.43 515.34 1247.59 514.37 1248.56ZM529.03 1248.56C528.06 1249.53 526.9 1250.01 525.55 1250.01C524.21 1250.01 523.05 1249.53 522.08 1248.56C521.11 1247.59 520.63 1246.43 520.63 1245.08C520.63 1243.73 521.11 1242.58 522.08 1241.61C523.05 1240.64 524.21 1240.15 525.55 1240.15C526.9 1240.15 528.06 1240.64 529.03 1241.61C530 1242.58 530.48 1243.73 530.48 1245.08C530.48 1246.43 530 1247.59 529.03 1248.56ZM543.69 1248.56C542.72 1249.53 541.56 1250.01 540.22 1250.01C538.87 1250.01 537.71 1249.53 536.74 1248.56C535.77 1247.59 535.29 1246.43 535.29 1245.08C535.29 1243.73 535.77 1242.58 536.74 1241.61C537.71 1240.64 538.87 1240.15 540.22 1240.15C541.56 1240.15 542.72 1240.64 543.69 1241.61C544.66 1242.58 545.14 1243.73 545.14 1245.08C545.14 1246.43 544.66 1247.59 543.69 1248.56Z" /><path fill-rule="evenodd" class="shp1" d="M580.09 1217.4L560.12 1263.28L552.73 1263.28L560.18 1247.04L547.17 1217.4L554.88 1217.4L563.75 1238.8L572.38 1217.4L580.09 1217.4ZM563.75 1238.8L563.41 1239.65L564.1 1239.65L563.75 1238.8ZM584.83 1221.32C587.95 1218.04 591.91 1216.39 596.71 1216.39C601.51 1216.39 605.47 1218.04 608.59 1221.32C611.71 1224.57 613.27 1228.63 613.27 1233.52C613.27 1238.4 611.71 1242.49 608.59 1245.78C605.47 1249.02 601.51 1250.64 596.71 1250.64C591.91 1250.64 587.95 1249.02 584.83 1245.78C581.71 1242.49 580.15 1238.4 580.15 1233.52C580.15 1228.63 581.71 1224.57 584.83 1221.32ZM590.01 1241.23C591.91 1243.12 594.14 1244.07 596.71 1244.07C599.28 1244.07 601.49 1243.12 603.35 1241.23C605.24 1239.29 606.19 1236.72 606.19 1233.52C606.19 1230.32 605.24 1227.77 603.35 1225.87C601.49 1223.93 599.28 1222.96 596.71 1222.96C594.14 1222.96 591.91 1223.93 590.01 1225.87C588.16 1227.77 587.23 1230.32 587.23 1233.52C587.23 1236.72 588.16 1239.29 590.01 1241.23ZM645.75 1217.4L645.75 1249.63L638.92 1249.63L638.92 1246.35C638.1 1247.31 636.98 1248.19 635.57 1249C633.68 1250.1 631.66 1250.64 629.51 1250.64C625.42 1250.64 622.33 1249.4 620.22 1246.91C618.11 1244.43 617.06 1241.12 617.06 1236.99L617.06 1217.4L624.14 1217.4L624.14 1236.05C624.14 1241.4 626.47 1244.07 631.15 1244.07C633.34 1244.07 635.13 1243.19 636.52 1241.42C637.95 1239.61 638.67 1237.5 638.67 1235.1L638.67 1217.4L645.75 1217.4ZM638.92 1246.35C639.21 1246.02 639.46 1245.68 639.68 1245.33L638.92 1245.33L638.92 1246.35ZM677.79 1250.64C674.21 1250.64 671.24 1249.76 668.88 1247.99C666.52 1246.22 664.71 1243.84 663.44 1240.85L669.76 1238.19C671.49 1242.2 674.19 1244.2 677.85 1244.2C679.54 1244.2 680.88 1243.86 681.9 1243.19C682.91 1242.47 683.41 1241.56 683.41 1240.47C683.41 1238.78 682.17 1237.63 679.68 1236.99L673.43 1235.48C671.36 1234.93 669.38 1233.92 667.49 1232.44C665.59 1230.93 664.64 1228.86 664.64 1226.25C664.64 1223.3 665.93 1220.92 668.5 1219.11C671.07 1217.3 674.08 1216.39 677.54 1216.39C680.4 1216.39 682.95 1217.05 685.18 1218.35C687.46 1219.66 689.16 1221.72 690.3 1224.54L684.11 1227.13C682.89 1224.27 680.63 1222.84 677.35 1222.84C675.74 1222.84 674.42 1223.15 673.36 1223.79C672.35 1224.42 671.85 1225.22 671.85 1226.19C671.85 1227.62 673.05 1228.61 675.45 1229.16L681.58 1230.61C684.66 1231.33 686.93 1232.57 688.4 1234.34C689.88 1236.07 690.62 1238.05 690.62 1240.28C690.62 1243.27 689.42 1245.76 687.01 1247.74C684.61 1249.67 681.54 1250.64 677.79 1250.64ZM694.22 1203.12L701.3 1203.12L701.3 1218.04L701.17 1220.5C701.96 1219.62 703.01 1218.8 704.33 1218.04C706.23 1216.94 708.27 1216.39 710.46 1216.39C714.5 1216.39 717.58 1217.63 719.69 1220.12C721.83 1222.61 722.91 1225.91 722.91 1230.04L722.91 1249.63L715.83 1249.63L715.83 1230.93C715.83 1225.62 713.49 1222.96 708.82 1222.96C706.63 1222.96 704.81 1223.85 703.38 1225.62C701.99 1227.39 701.3 1229.47 701.3 1231.87L701.3 1249.63L694.22 1249.63L694.22 1203.12ZM701.17 1220.5C700.82 1220.89 700.53 1221.29 700.28 1221.7L701.11 1221.7L701.17 1220.5ZM731.38 1221.32C734.49 1218.04 738.45 1216.39 743.26 1216.39C748.06 1216.39 752.02 1218.04 755.14 1221.32C758.25 1224.57 759.81 1228.63 759.81 1233.52C759.81 1238.4 758.25 1242.49 755.14 1245.78C752.02 1249.02 748.06 1250.64 743.26 1250.64C738.45 1250.64 734.49 1249.02 731.38 1245.78C728.26 1242.49 726.7 1238.4 726.7 1233.52C726.7 1228.63 728.26 1224.57 731.38 1221.32ZM736.56 1241.23C738.45 1243.12 740.69 1244.07 743.26 1244.07C745.83 1244.07 748.04 1243.12 749.89 1241.23C751.79 1239.29 752.74 1236.72 752.74 1233.52C752.74 1230.32 751.79 1227.77 749.89 1225.87C748.04 1223.93 745.83 1222.96 743.26 1222.96C740.69 1222.96 738.45 1223.93 736.56 1225.87C734.7 1227.77 733.78 1230.32 733.78 1233.52C733.78 1236.72 734.7 1239.29 736.56 1241.23ZM792.29 1217.4L792.29 1249.63L785.47 1249.63L785.47 1246.35C784.64 1247.31 783.53 1248.19 782.12 1249C780.22 1250.1 778.2 1250.64 776.05 1250.64C771.97 1250.64 768.87 1249.4 766.76 1246.91C764.66 1244.43 763.61 1241.12 763.61 1236.99L763.61 1217.4L770.68 1217.4L770.68 1236.05C770.68 1241.4 773.02 1244.07 777.7 1244.07C779.89 1244.07 781.68 1243.19 783.07 1241.42C784.5 1239.61 785.22 1237.5 785.22 1235.1L785.22 1217.4L792.29 1217.4ZM785.47 1246.35C785.76 1246.02 786.01 1245.68 786.23 1245.33L785.47 1245.33L785.47 1246.35ZM805.19 1203.12L805.19 1249.63L798.11 1249.63L798.11 1203.12L805.19 1203.12ZM824.59 1250.64C820.42 1250.64 816.81 1249 813.78 1245.71C810.75 1242.43 809.23 1238.36 809.23 1233.52C809.23 1228.67 810.75 1224.61 813.78 1221.32C816.81 1218.04 820.42 1216.39 824.59 1216.39C827.07 1216.39 829.28 1216.92 831.22 1217.97C832.64 1218.73 833.78 1219.58 834.64 1220.53L834.51 1218.04L834.51 1203.12L841.59 1203.12L841.59 1249.63L834.76 1249.63L834.76 1246.36C833.89 1247.37 832.71 1248.27 831.22 1249.06C829.28 1250.12 827.07 1250.64 824.59 1250.64ZM834.64 1220.53L834.7 1221.7L835.52 1221.7C835.27 1221.3 834.98 1220.91 834.64 1220.53ZM834.76 1246.36C835.05 1246.03 835.3 1245.69 835.52 1245.33L834.76 1245.33L834.76 1246.36ZM825.53 1244.07C828.1 1244.07 830.27 1243.12 832.04 1241.23C833.86 1239.33 834.76 1236.76 834.76 1233.52C834.76 1230.27 833.86 1227.7 832.04 1225.81C830.27 1223.91 828.1 1222.96 825.53 1222.96C823.01 1222.96 820.84 1223.93 819.03 1225.87C817.21 1227.77 816.31 1230.32 816.31 1233.52C816.31 1236.72 817.21 1239.29 819.03 1241.23C820.84 1243.12 823.01 1244.07 825.53 1244.07ZM281.01 1297.32C284.13 1294.04 288.09 1292.39 292.89 1292.39C297.7 1292.39 301.66 1294.04 304.77 1297.32C307.89 1300.57 309.45 1304.63 309.45 1309.52C309.45 1314.4 307.89 1318.49 304.77 1321.78C301.66 1325.02 297.7 1326.64 292.89 1326.64C288.09 1326.64 284.13 1325.02 281.01 1321.78C277.9 1318.49 276.34 1314.4 276.34 1309.52C276.34 1304.63 277.9 1300.57 281.01 1297.32ZM286.19 1317.23C288.09 1319.12 290.32 1320.07 292.89 1320.07C295.46 1320.07 297.67 1319.12 299.53 1317.23C301.42 1315.29 302.37 1312.72 302.37 1309.52C302.37 1306.32 301.42 1303.77 299.53 1301.87C297.67 1299.93 295.46 1298.96 292.89 1298.96C290.32 1298.96 288.09 1299.93 286.19 1301.87C284.34 1303.77 283.41 1306.32 283.41 1309.52C283.41 1312.72 284.34 1315.29 286.19 1317.23ZM330.24 1326.64C327.76 1326.64 325.52 1326.12 323.54 1325.06C322.16 1324.31 321.04 1323.46 320.19 1322.51L320.32 1325L320.32 1339.28L313.24 1339.28L313.24 1293.4L320.07 1293.4L320.07 1296.67C320.93 1295.66 322.09 1294.76 323.54 1293.97C325.52 1292.92 327.76 1292.39 330.24 1292.39C334.41 1292.39 338.01 1294.04 341.05 1297.32C344.08 1300.61 345.6 1304.67 345.6 1309.52C345.6 1314.36 344.08 1318.43 341.05 1321.71C338.01 1325 334.41 1326.64 330.24 1326.64ZM320.19 1322.51L320.13 1321.33L319.31 1321.33C319.56 1321.74 319.85 1322.13 320.19 1322.51ZM320.07 1296.67C319.78 1297 319.53 1297.34 319.31 1297.7L320.07 1297.7L320.07 1296.67ZM329.29 1320.07C331.82 1320.07 333.99 1319.12 335.8 1317.23C337.61 1315.29 338.52 1312.72 338.52 1309.52C338.52 1306.32 337.61 1303.77 335.8 1301.87C333.99 1299.93 331.82 1298.96 329.29 1298.96C326.72 1298.96 324.53 1299.91 322.72 1301.81C320.95 1303.7 320.07 1306.27 320.07 1309.52C320.07 1312.76 320.95 1315.33 322.72 1317.23C324.53 1319.12 326.72 1320.07 329.29 1320.07ZM364.55 1326.01C359.84 1326.01 355.9 1324.41 352.74 1321.21C349.58 1318.01 348 1314.05 348 1309.33C348 1304.44 349.51 1300.44 352.55 1297.32C355.62 1294.2 359.35 1292.64 363.73 1292.64C365.76 1292.64 367.63 1293.02 369.36 1293.78C371.08 1294.5 372.52 1295.45 373.65 1296.63C374.79 1297.76 375.7 1298.88 376.37 1299.98C377.05 1301.07 377.59 1302.17 378.02 1303.26L378.77 1305.16L356.47 1314.38C358.19 1317.75 360.89 1319.44 364.55 1319.44C367.93 1319.44 370.66 1317.9 372.77 1314.83L378.46 1318.62C377.19 1320.51 375.4 1322.22 373.09 1323.74C370.77 1325.25 367.93 1326.01 364.55 1326.01ZM355.27 1308.82L370.18 1302.63C369.76 1301.58 368.98 1300.73 367.84 1300.1C366.7 1299.43 365.42 1299.09 363.99 1299.09C361.84 1299.09 359.82 1299.98 357.92 1301.74C356.07 1303.51 355.18 1305.87 355.27 1308.82ZM383.51 1293.4L390.34 1293.4L390.34 1296.65C391.14 1295.71 392.23 1294.84 393.62 1294.04C395.52 1292.94 397.56 1292.39 399.75 1292.39C403.8 1292.39 406.87 1293.63 408.98 1296.12C411.13 1298.61 412.2 1301.91 412.2 1306.04L412.2 1325.63L405.13 1325.63L405.13 1306.93C405.13 1301.62 402.79 1298.96 398.11 1298.96C395.92 1298.96 394.11 1299.85 392.68 1301.62C391.29 1303.39 390.59 1305.47 390.59 1307.87L390.59 1325.63L383.51 1325.63L383.51 1293.4ZM390.34 1296.65C390.05 1296.99 389.79 1297.34 389.58 1297.7L390.34 1297.7L390.34 1296.65ZM442.09 1326.64C438.64 1326.64 435.73 1325.65 433.37 1323.67C431.06 1321.65 429.9 1318.98 429.9 1315.65C429.9 1312.07 431.27 1309.26 434 1307.24C436.79 1305.22 440.16 1304.21 444.12 1304.21C447.65 1304.21 450.24 1304.69 451.89 1305.66C451.84 1303.69 451.13 1302.08 449.74 1300.86C448.31 1299.6 446.54 1298.96 444.43 1298.96C442.87 1298.96 441.46 1299.34 440.2 1300.1C438.93 1300.82 438.01 1302 437.42 1303.64L430.91 1300.86C431.84 1298.54 433.39 1296.56 435.58 1294.92C437.82 1293.23 440.72 1292.39 444.31 1292.39C448.43 1292.39 451.87 1293.61 454.61 1296.06C457.34 1298.5 458.71 1301.91 458.71 1306.29L458.71 1325.63L451.89 1325.63L451.89 1322.3C449.59 1325.2 446.32 1326.64 442.09 1326.64ZM451.89 1322.3C452.13 1321.99 452.36 1321.67 452.58 1321.33L451.89 1321.33L451.89 1322.3ZM443.04 1320.07C445.27 1320.07 447.3 1319.25 449.11 1317.61C450.96 1315.92 451.89 1314.05 451.89 1311.98C450.5 1310.84 448.24 1310.28 445.13 1310.28C442.47 1310.28 440.49 1310.84 439.19 1311.98C437.88 1313.08 437.23 1314.34 437.23 1315.77C437.23 1317.08 437.8 1318.13 438.93 1318.93C440.11 1319.69 441.48 1320.07 443.04 1320.07ZM491.51 1326.64C487.34 1326.64 483.74 1325 480.7 1321.71C477.67 1318.43 476.15 1314.36 476.15 1309.52C476.15 1304.67 477.67 1300.61 480.7 1297.32C483.74 1294.04 487.34 1292.39 491.51 1292.39C494 1292.39 496.21 1292.92 498.15 1293.97C499.57 1294.73 500.7 1295.58 501.56 1296.53L501.43 1294.04L501.43 1279.12L508.51 1279.12L508.51 1325.63L501.69 1325.63L501.69 1322.36C500.82 1323.37 499.64 1324.27 498.15 1325.06C496.21 1326.12 494 1326.64 491.51 1326.64ZM501.56 1296.53L501.62 1297.7L502.44 1297.7C502.19 1297.3 501.9 1296.91 501.56 1296.53ZM501.69 1322.36C501.97 1322.03 502.22 1321.69 502.44 1321.33L501.69 1321.33L501.69 1322.36ZM492.46 1320.07C495.03 1320.07 497.2 1319.12 498.97 1317.23C500.78 1315.33 501.69 1312.76 501.69 1309.52C501.69 1306.27 500.78 1303.7 498.97 1301.81C497.2 1299.91 495.03 1298.96 492.46 1298.96C489.93 1298.96 487.76 1299.93 485.95 1301.87C484.14 1303.77 483.23 1306.32 483.23 1309.52C483.23 1312.72 484.14 1315.29 485.95 1317.23C487.76 1319.12 489.93 1320.07 492.46 1320.07ZM517.23 1297.32C520.35 1294.04 524.31 1292.39 529.11 1292.39C533.91 1292.39 537.87 1294.04 540.99 1297.32C544.11 1300.57 545.67 1304.63 545.67 1309.52C545.67 1314.4 544.11 1318.49 540.99 1321.78C537.87 1325.02 533.91 1326.64 529.11 1326.64C524.31 1326.64 520.35 1325.02 517.23 1321.78C514.11 1318.49 512.55 1314.4 512.55 1309.52C512.55 1304.63 514.11 1300.57 517.23 1297.32ZM522.41 1317.23C524.31 1319.12 526.54 1320.07 529.11 1320.07C531.68 1320.07 533.89 1319.12 535.75 1317.23C537.64 1315.29 538.59 1312.72 538.59 1309.52C538.59 1306.32 537.64 1303.77 535.75 1301.87C533.89 1299.93 531.68 1298.96 529.11 1298.96C526.54 1298.96 524.31 1299.93 522.41 1301.87C520.56 1303.77 519.63 1306.32 519.63 1309.52C519.63 1312.72 520.56 1315.29 522.41 1317.23ZM564.5 1326.64C559.7 1326.64 555.74 1325.02 552.62 1321.78C549.5 1318.49 547.94 1314.4 547.94 1309.52C547.94 1304.63 549.5 1300.57 552.62 1297.32C555.74 1294.04 559.7 1292.39 564.5 1292.39C568.08 1292.39 571.05 1293.28 573.41 1295.05C575.81 1296.82 577.64 1299.22 578.91 1302.25L572.46 1304.97C570.78 1300.97 568 1298.96 564.12 1298.96C561.72 1298.96 559.59 1299.95 557.74 1301.93C555.93 1303.91 555.02 1306.44 555.02 1309.52C555.02 1312.59 555.93 1315.12 557.74 1317.1C559.59 1319.08 561.72 1320.07 564.12 1320.07C568.16 1320.07 571.05 1318.07 572.78 1314.07L579.1 1316.78C577.83 1319.78 575.98 1322.18 573.54 1323.99C571.09 1325.76 568.08 1326.64 564.5 1326.64ZM611.14 1293.4L611.14 1325.63L604.31 1325.63L604.31 1322.35C603.48 1323.31 602.37 1324.19 600.96 1325C599.07 1326.1 597.04 1326.64 594.9 1326.64C590.81 1326.64 587.71 1325.4 585.61 1322.91C583.5 1320.43 582.45 1317.12 582.45 1312.99L582.45 1293.4L589.52 1293.4L589.52 1312.05C589.52 1317.4 591.86 1320.07 596.54 1320.07C598.73 1320.07 600.52 1319.19 601.91 1317.42C603.34 1315.61 604.06 1313.5 604.06 1311.1L604.06 1293.4L611.14 1293.4ZM604.31 1322.35C604.6 1322.02 604.85 1321.68 605.07 1321.33L604.31 1321.33L604.31 1322.35ZM624.03 1325.63L616.95 1325.63L616.95 1293.4L623.78 1293.4L623.78 1296.68C624.6 1295.73 625.72 1294.85 627.12 1294.04C629.06 1292.94 631 1292.39 632.94 1292.39C638.04 1292.39 641.34 1294.14 642.86 1297.64C645.09 1294.14 648.65 1292.39 653.54 1292.39C657.42 1292.39 660.32 1293.63 662.26 1296.12C664.24 1298.61 665.23 1301.91 665.23 1306.04L665.23 1325.63L658.15 1325.63L658.15 1306.93C658.15 1303.98 657.63 1301.91 656.57 1300.73C655.56 1299.55 654 1298.96 651.9 1298.96C649.83 1298.96 648.1 1299.87 646.71 1301.68C645.32 1303.45 644.63 1305.52 644.63 1307.87L644.63 1325.63L637.55 1325.63L637.55 1306.93C637.55 1303.98 637.02 1301.91 635.97 1300.73C634.96 1299.55 633.4 1298.96 631.3 1298.96C629.23 1298.96 627.5 1299.87 626.11 1301.68C624.72 1303.45 624.03 1305.52 624.03 1307.87L624.03 1325.63ZM623.78 1296.68C623.49 1297.01 623.23 1297.35 623.02 1297.7L623.78 1297.7L623.78 1296.68ZM685.71 1326.01C680.99 1326.01 677.05 1324.41 673.89 1321.21C670.73 1318.01 669.15 1314.05 669.15 1309.33C669.15 1304.44 670.67 1300.44 673.7 1297.32C676.77 1294.2 680.5 1292.64 684.88 1292.64C686.91 1292.64 688.78 1293.02 690.51 1293.78C692.24 1294.5 693.67 1295.45 694.8 1296.63C695.94 1297.76 696.85 1298.88 697.52 1299.98C698.2 1301.07 698.74 1302.17 699.17 1303.26L699.92 1305.16L677.62 1314.38C679.34 1317.75 682.04 1319.44 685.71 1319.44C689.08 1319.44 691.81 1317.9 693.92 1314.83L699.61 1318.62C698.34 1320.51 696.55 1322.22 694.24 1323.74C691.92 1325.25 689.08 1326.01 685.71 1326.01ZM676.42 1308.82L691.33 1302.63C690.91 1301.58 690.13 1300.73 688.99 1300.1C687.85 1299.43 686.57 1299.09 685.14 1299.09C682.99 1299.09 680.97 1299.98 679.07 1301.74C677.22 1303.51 676.33 1305.87 676.42 1308.82ZM704.66 1293.4L711.49 1293.4L711.49 1296.65C712.29 1295.71 713.38 1294.84 714.77 1294.04C716.67 1292.94 718.71 1292.39 720.9 1292.39C724.95 1292.39 728.02 1293.63 730.13 1296.12C732.28 1298.61 733.35 1301.91 733.35 1306.04L733.35 1325.63L726.28 1325.63L726.28 1306.93C726.28 1301.62 723.94 1298.96 719.26 1298.96C717.07 1298.96 715.26 1299.85 713.83 1301.62C712.44 1303.39 711.74 1305.47 711.74 1307.87L711.74 1325.63L704.66 1325.63L704.66 1293.4ZM711.49 1296.65C711.2 1296.99 710.94 1297.34 710.73 1297.7L711.49 1297.7L711.49 1296.65ZM752.94 1326.14C749.53 1326.14 746.9 1325.21 745.04 1323.36C743.23 1321.5 742.33 1318.91 742.33 1315.58L742.33 1299.98L736.89 1299.98L736.89 1293.4L742.33 1293.4L742.33 1283.92L749.4 1283.92L749.4 1293.4L756.99 1293.4L756.99 1299.98L749.4 1299.98L749.4 1315.14C749.4 1318.09 750.58 1319.57 752.94 1319.57C753.91 1319.57 754.9 1319.31 755.91 1318.81L758.44 1325C756.71 1325.76 754.88 1326.14 752.94 1326.14ZM790.61 1278.87C792.54 1278.87 794.38 1279.25 796.1 1280.01L793.58 1286.2C792.61 1285.69 791.62 1285.44 790.61 1285.44C789.26 1285.44 788.16 1285.84 787.32 1286.64C786.48 1287.4 786.06 1288.56 786.06 1290.12L786.06 1293.4L794.15 1293.4L794.15 1299.98L786.06 1299.98L786.06 1325.63L778.98 1325.63L778.98 1299.98L773.17 1299.98L773.17 1293.4L778.98 1293.4L778.98 1289.93C778.98 1286.6 780.05 1283.92 782.2 1281.9C784.35 1279.88 787.15 1278.87 790.61 1278.87ZM805.84 1286.7C804.91 1287.63 803.79 1288.09 802.49 1288.09C801.18 1288.09 800.06 1287.63 799.14 1286.7C798.21 1285.78 797.75 1284.66 797.75 1283.36C797.75 1282.05 798.21 1280.93 799.14 1280.01C800.06 1279.08 801.18 1278.62 802.49 1278.62C803.79 1278.62 804.91 1279.08 805.84 1280.01C806.76 1280.93 807.23 1282.05 807.23 1283.36C807.23 1284.66 806.76 1285.78 805.84 1286.7ZM806.03 1293.4L806.03 1325.63L798.95 1325.63L798.95 1293.4L806.03 1293.4ZM819.42 1308.06L819.42 1325.63L812.35 1325.63L812.35 1293.4L819.17 1293.4L819.17 1296.91C819.84 1295.99 820.81 1295.16 822.08 1294.41C824.01 1293.23 825.91 1292.64 827.76 1292.64C829.53 1292.64 831.26 1293 832.95 1293.72L830.29 1300.29C829.2 1299.87 828.04 1299.66 826.82 1299.66C824.88 1299.66 823.15 1300.44 821.63 1302C820.16 1303.51 819.42 1305.54 819.42 1308.06ZM819.17 1296.91C818.81 1297.4 818.54 1297.92 818.35 1298.46L819.17 1298.46L819.17 1296.91ZM847.61 1326.64C844.03 1326.64 841.06 1325.76 838.7 1323.99C836.34 1322.22 834.53 1319.84 833.26 1316.85L839.58 1314.19C841.31 1318.2 844.01 1320.2 847.67 1320.2C849.36 1320.2 850.7 1319.86 851.71 1319.19C852.73 1318.47 853.23 1317.56 853.23 1316.47C853.23 1314.78 851.99 1313.63 849.5 1312.99L843.25 1311.48C841.18 1310.93 839.2 1309.92 837.31 1308.44C835.41 1306.93 834.46 1304.86 834.46 1302.25C834.46 1299.3 835.75 1296.92 838.32 1295.11C840.89 1293.3 843.9 1292.39 847.35 1292.39C850.22 1292.39 852.77 1293.05 855 1294.35C857.28 1295.66 858.98 1297.72 860.12 1300.54L853.93 1303.13C852.7 1300.27 850.45 1298.84 847.16 1298.84C845.56 1298.84 844.24 1299.15 843.18 1299.79C842.17 1300.42 841.67 1301.22 841.67 1302.19C841.67 1303.62 842.87 1304.61 845.27 1305.16L851.4 1306.61C854.47 1307.33 856.75 1308.57 858.22 1310.34C859.7 1312.07 860.44 1314.05 860.44 1316.28C860.44 1319.27 859.23 1321.76 856.83 1323.74C854.43 1325.67 851.36 1326.64 847.61 1326.64ZM878.07 1326.14C874.65 1326.14 872.02 1325.21 870.17 1323.36C868.36 1321.5 867.45 1318.91 867.45 1315.58L867.45 1299.98L862.02 1299.98L862.02 1293.4L867.45 1293.4L867.45 1283.92L874.53 1283.92L874.53 1293.4L882.11 1293.4L882.11 1299.98L874.53 1299.98L874.53 1315.14C874.53 1318.09 875.71 1319.57 878.07 1319.57C879.04 1319.57 880.03 1319.31 881.04 1318.81L883.56 1325C881.84 1325.76 880 1326.14 878.07 1326.14ZM908.21 1324.56C907.24 1325.53 906.08 1326.01 904.73 1326.01C903.39 1326.01 902.23 1325.53 901.26 1324.56C900.29 1323.59 899.81 1322.43 899.81 1321.08C899.81 1319.73 900.29 1318.58 901.26 1317.61C902.23 1316.64 903.39 1316.15 904.73 1316.15C906.08 1316.15 907.24 1316.64 908.21 1317.61C909.18 1318.58 909.66 1319.73 909.66 1321.08C909.66 1322.43 909.18 1323.59 908.21 1324.56ZM907.64 1311.6L901.83 1311.6L901.2 1294.04L901.2 1279.12L908.27 1279.12L908.27 1294.04L907.64 1311.6ZM451.89 1305.66C451.89 1305.72 451.89 1305.79 451.89 1305.85L451.89 1305.66Z" /><path class="shp2" d="M527.5 1087C360.22 1087 225 1001.85 225 896.5C225 838.82 305.21 815.05 291.75 743.28C277.07 665.04 356.63 583.63 441.45 508.87C549.19 413.9 684.63 391.99 744.44 459.84C799.74 522.58 737 653.06 704 728.06C665.66 815.2 830 826.44 830 896.5C830 1001.85 694.78 1087 527.5 1087Z" /><g ><g ><g ><g ><path class="shp3" d="M581.87 541.51L347.19 541.51C343.65 541.51 340.78 538.64 340.78 535.1L340.78 398.42C340.78 394.88 343.65 392.01 347.19 392.01L581.87 392.01C585.41 392.01 588.29 394.88 588.29 398.42L588.29 535.1C588.29 538.64 585.41 541.51 581.87 541.51Z" /><path class="shp3" d="M340.78 419.1L588.29 419.1" /><path class="shp3" d="M360.72 405.7C360.72 407.89 358.95 409.66 356.77 409.66C354.58 409.66 352.81 407.89 352.81 405.7C352.81 403.52 354.58 401.75 356.77 401.75C358.95 401.75 360.72 403.52 360.72 405.7Z" /><path class="shp3" d="M377 405.7C377 407.89 375.23 409.66 373.04 409.66C370.86 409.66 369.09 407.89 369.09 405.7C369.09 403.52 370.86 401.75 373.04 401.75C375.23 401.75 377 403.52 377 405.7Z" /><path class="shp3" d="M393.28 405.7C393.28 407.89 391.5 409.66 389.32 409.66C387.13 409.66 385.36 407.89 385.36 405.7C385.36 403.52 387.13 401.75 389.32 401.75C391.5 401.75 393.28 403.52 393.28 405.7Z" /></g><g ><g ><g ><path class="shp4" d="M210.94 557.15L269.47 557.15C275.12 557.15 279.71 552.57 279.71 546.91L279.71 488.38C279.71 482.73 275.12 478.14 269.47 478.14L210.94 478.14C205.29 478.14 200.7 482.73 200.7 488.38L200.7 546.91C200.7 552.57 205.29 557.15 210.94 557.15Z" /></g><g ><path class="shp5" d="M262.83 517.65C262.83 530.14 252.7 540.28 240.21 540.28C227.71 540.28 217.58 530.14 217.58 517.65C217.58 505.15 227.71 495.02 240.21 495.02C252.7 495.02 262.83 505.15 262.83 517.65Z" /><path class="shp5" d="M255.49 501.67L223.54 533.62" /></g></g></g><g ></g><g ><g ></g></g><g ><g ><g ><path class="shp4" d="M1041.1 787.18L1099.62 787.18C1105.28 787.18 1109.86 782.59 1109.86 776.94L1109.86 718.41C1109.86 712.75 1105.28 708.17 1099.62 708.17L1041.1 708.17C1035.44 708.17 1030.86 712.75 1030.86 718.41L1030.86 776.94C1030.86 782.59 1035.44 787.18 1041.1 787.18Z" /></g><g ><g ><path fill-rule="evenodd" class="shp6" d="M1095.82 769.86C1095.52 769.97 1095.21 770.02 1094.88 770.02L1045.84 770.04C1044.82 770.04 1043.86 769.49 1043.35 768.6C1042.84 767.72 1042.84 766.61 1043.35 765.73L1067.86 723.25C1068.37 722.37 1069.31 721.81 1070.34 721.81C1071.37 721.81 1072.32 722.36 1072.83 723.25L1097.37 765.71C1097.88 766.59 1097.88 767.7 1097.37 768.58C1097.02 769.19 1096.47 769.64 1095.82 769.86ZM1047.19 766.38L1093.53 766.37L1070.35 726.25L1047.19 766.38Z" /></g><path class="shp6" d="M1070.36 757.94C1069.43 757.94 1068.66 757.21 1068.62 756.28L1067.63 739.57C1067.56 738.02 1068.8 736.73 1070.35 736.73C1071.9 736.73 1073.14 738.02 1073.07 739.57L1072.09 756.28C1072.05 757.21 1071.28 757.94 1070.36 757.94Z" /><path class="shp6" d="M1072.13 761.97C1072.13 762.95 1071.33 763.74 1070.36 763.74C1069.38 763.74 1068.59 762.95 1068.59 761.97C1068.59 761 1069.38 760.21 1070.36 760.21C1071.33 760.21 1072.13 761 1072.13 761.97Z" /></g></g></g><g ></g><g ></g><g ></g><g ></g><g ><path class="shp7" d="M1081.97 663.41L1081.97 677.21" /><path class="shp7" d="M1088.87 670.31L1075.07 670.31" /></g><g ><path class="shp7" d="M761.2 915.28L761.2 929.08" /><path class="shp7" d="M768.1 922.18L754.3 922.18" /></g><g ></g><g ></g><g ><path class="shp7" d="M97.93 805.5L97.93 819.3" /><path class="shp7" d="M104.83 812.4L91.03 812.4" /></g><g ></g><path class="shp3" d="M200.61 726.92L62.51 726.92C60.09 726.92 58.14 724.97 58.14 722.55C58.14 720.14 60.09 718.19 62.51 718.19L200.61 718.19C203.02 718.19 204.98 720.14 204.98 722.55C204.98 724.97 203.02 726.92 200.61 726.92Z" /><path class="shp3" d="M1013.73 616.64L875.63 616.64C873.22 616.64 871.26 614.69 871.26 612.27C871.26 609.86 873.22 607.9 875.63 607.9L1013.73 607.9C1016.14 607.9 1018.1 609.86 1018.1 612.27C1018.1 614.69 1016.14 616.64 1013.73 616.64Z" /><path class="shp6" d="M1033.95 646L982.9 646C981.69 646 980.71 645.03 980.71 643.82C980.71 642.61 981.69 641.63 982.9 641.63L1033.95 641.63C1035.15 641.63 1036.13 642.61 1036.13 643.82C1036.13 645.03 1035.15 646 1033.95 646Z" /><path class="shp6" d="M898.85 541.93L847.8 541.93C846.6 541.93 845.62 540.96 845.62 539.75C845.62 538.54 846.6 537.56 847.8 537.56L898.85 537.56C900.06 537.56 901.04 538.54 901.04 539.75C901.04 540.96 900.06 541.93 898.85 541.93Z" /><path class="shp6" d="M149.28 688.31L110.23 688.31C109.02 688.31 108.04 687.34 108.04 686.13C108.04 684.92 109.02 683.95 110.23 683.95L149.28 683.95C150.48 683.95 151.46 684.92 151.46 686.13C151.46 687.34 150.48 688.31 149.28 688.31Z" /><g ><g ><path class="shp4" d="M729.5 458.56L771.78 458.56C775.87 458.56 779.18 455.25 779.18 451.16L779.18 408.88C779.18 404.8 775.87 401.48 771.78 401.48L729.5 401.48C725.41 401.48 722.1 404.8 722.1 408.88L722.1 451.16C722.1 455.25 725.41 458.56 729.5 458.56Z" /></g><g ><g ><path fill-rule="evenodd" class="shp6" d="M758.72 427.61L757.73 432.51L763.18 432.51L763.18 436.87L756.91 436.87L755.28 445.45L750.63 445.45L752.28 436.87L746.27 436.87L744.67 445.45L740.12 445.45L741.69 436.87L736.66 436.87L736.66 432.51L742.51 432.51L743.5 427.61L738.18 427.61L738.18 423.2L744.29 423.2L745.91 414.6L750.54 414.6L748.92 423.2L755.01 423.2L756.65 414.6L761.2 414.6L759.55 423.2L764.62 423.2L764.62 427.61L758.72 427.61ZM747.1 432.51L753.15 432.51L754.14 427.61L748.09 427.61L747.1 432.51Z" /></g></g></g></g><g ><g ><g ><path class="shp8" d="M478 890.44L437.9 627.45L257.31 627.45L300.6 906.13C303.53 925.01 319.28 938.3 338.71 938.3L642.37 938.3L644.61 912.77L504.36 912.77C490.9 912.77 479.99 903.54 478 890.44Z" /></g><g ><path class="shp9" d="M307.07 890.44L268.46 637.19C267.59 631.48 262.84 627.45 256.97 627.45L256.61 627.45C248.39 627.45 241.66 635.15 242.9 643.15L283.75 906.13C286.68 925.01 302.43 938.3 321.86 938.3L517.45 938.3L519.68 912.77L333.44 912.77C319.97 912.77 309.07 903.54 307.07 890.44Z" /></g><g ><g ><g ><path class="shp10" d="M429.33 938.3L429.33 1081.86" /></g><g ><g ><path class="shp10" d="M348.85 1094.54L348.85 1094.54C348.85 1087.53 354.53 1081.86 361.53 1081.86L497.12 1081.86C504.12 1081.86 509.8 1087.53 509.8 1094.54L509.8 1094.54" /></g><g ><path class="shp10" d="M415.45 1094.54L415.45 1094.54C415.45 1087.53 421.13 1081.86 428.13 1081.86" /></g><g ><g ><path class="shp11" d="M361.66 1107.34C361.66 1114.41 355.92 1120.14 348.85 1120.14C341.78 1120.14 336.05 1114.41 336.05 1107.34C336.05 1100.27 341.78 1094.54 348.85 1094.54C355.92 1094.54 361.66 1100.27 361.66 1107.34Z" /></g><g style="opacity: 0.451"><path class="shp12" d="M353.56 1107.34C353.56 1109.94 351.45 1112.04 348.85 1112.04C346.26 1112.04 344.15 1109.94 344.15 1107.34C344.15 1104.74 346.26 1102.64 348.85 1102.64C351.45 1102.64 353.56 1104.74 353.56 1107.34Z" /></g></g><g ><path class="shp11" d="M428.25 1107.34C428.25 1114.41 422.52 1120.14 415.45 1120.14C408.38 1120.14 402.65 1114.41 402.65 1107.34C402.65 1100.27 408.38 1094.54 415.45 1094.54C422.52 1094.54 428.25 1100.27 428.25 1107.34Z" /></g><g style="opacity: 0.451"><path class="shp12" d="M420.15 1107.34C420.15 1109.94 418.05 1112.04 415.45 1112.04C412.85 1112.04 410.75 1109.94 410.75 1107.34C410.75 1104.74 412.85 1102.64 415.45 1102.64C418.05 1102.64 420.15 1104.74 420.15 1107.34Z" /></g><g ><g ><path class="shp11" d="M522.6 1107.34C522.6 1114.41 516.87 1120.14 509.8 1120.14C502.73 1120.14 496.99 1114.41 496.99 1107.34C496.99 1100.27 502.73 1094.54 509.8 1094.54C516.87 1094.54 522.6 1100.27 522.6 1107.34Z" /></g><g style="opacity: 0.451"><path class="shp12" d="M514.5 1107.34C514.5 1109.94 512.39 1112.04 509.8 1112.04C507.2 1112.04 505.09 1109.94 505.09 1107.34C505.09 1104.74 507.2 1102.64 509.8 1102.64C512.39 1102.64 514.5 1104.74 514.5 1107.34Z" /></g></g></g></g></g></g><g ><g ><path class="shp13" d="M570.47 655.68L616.25 587.29L630.43 590.25C623.21 614.58 617.21 631.56 612.43 641.19" /><path class="shp13" d="M623.13 601.57L630.43 590.25C639.48 588.16 645.66 586.28 648.95 584.6C653.88 582.08 657.17 577.62 658.55 573.85C659.6 570.96 659.14 562.46 657.91 562.33C654.99 562.01 649.16 572.89 646.44 573.53C643.71 574.18 634.87 573.51 630 574.15C624.55 574.86 620.67 577.77 618.36 582.89L610.88 596.46" /><path class="shp14" d="M600.39 607.32L608.43 595.67L629.22 605L622.62 622.7" /><g ><path class="shp0" d="M433.39 582.94C455.98 572.55 477.23 576.2 497.13 593.9C526.99 620.46 547.19 645.13 558.14 653.12L603.12 601.38L628.24 613.18C621.62 650.65 603.03 710.4 557.53 716.55C524.72 720.99 484.26 702.98 436.14 662.54" /></g><path class="shp15" d="M543.55 670.31L558.14 653.12" /></g><g ><path class="shp16" d="M615.45 1098.52L611.65 1113.13C610.73 1116.68 613.41 1120.14 617.08 1120.14L661.36 1120.14C664.02 1120.14 666.18 1117.99 666.18 1115.32C666.18 1113.22 664.82 1111.37 662.82 1110.73L632.56 1098.52" /></g><path class="shp13" d="M589.93 870.24C585.22 919.77 593.73 995.87 615.45 1098.52C620.62 1104.76 626.32 1104.76 632.56 1098.52C637.79 1000.64 643.17 929.7 648.68 885.7" /><path class="shp17" d="M484.3 783.21L535.12 809.86L535.12 810.37C604.26 805.73 644.05 815.76 654.51 840.44C670.88 879.09 680.46 961.27 683.25 1086.98L607.34 1086.98C588.51 981.39 575.88 925.37 569.44 918.93C559.78 909.28 519.95 909.99 446.72 909.99C364.46 909.99 404.62 803.93 435.24 794.83" /><g ><path class="shp18" d="M612.6 1086.98C597.56 978.02 584.52 919.55 573.47 911.56C559.97 901.8 521.36 900.11 457.63 906.49" /></g><g ><path class="shp16" d="M456.29 1098.52L452.49 1113.13C451.57 1116.68 454.25 1120.14 457.92 1120.14L502.2 1120.14C504.86 1120.14 507.02 1117.99 507.02 1115.32C507.02 1113.22 505.66 1111.37 503.66 1110.73L473.4 1098.52" /></g><path class="shp13" d="M463.67 870.24C458.95 919.77 456.5 995.87 456.29 1098.52C461.46 1104.76 467.16 1104.76 473.4 1098.52C491.16 1000.64 502.8 929.7 508.31 885.7" /><g ><g ><path class="shp19" d="M394.67 806.54C483.54 807.97 533.78 822.15 545.41 849.08C559.7 882.19 555.07 961.49 531.51 1086.98L451.16 1086.98L451.16 918.58C451.16 915.31 448.61 912.39 445.34 912.47C434.21 912.77 409.38 912.77 377.86 912.77C295.6 912.77 335.75 784.75 366.38 775.65" /></g><g ><path class="shp20" d="M394.67 806.54C483.54 807.97 533.78 822.15 545.41 849.08C551.22 862.54 554.24 885.46 552.69 912.77" /></g><g ><path class="shp18" d="M462.36 1086.98C462.9 974.28 461.88 914.92 459.29 908.9C453.9 896.35 435.47 902.52 392.74 902.52C310.49 902.52 344 784.75 374.62 775.65" /></g><path class="shp21" d="M343.45 827.12C371.61 827.8 387.82 826.01 392.08 821.74C396.35 817.48 396.35 805.68 392.08 786.34" /><path class="shp22" d="M342.42 832.79C374.56 833.47 393.07 831.68 397.94 827.4C402.81 823.13 402.81 811.31 397.94 791.95" /></g><g ><g ><path class="shp0" d="M334.28 630.58C327.53 750.44 329.27 810.37 339.48 810.37C354.8 810.37 525.13 809.86 535.12 809.86C545.1 809.86 521.74 656.1 488.09 623.62C454.83 587.52 430.87 571.2 416.21 574.66C401.55 578.12 374.24 596.76 334.28 630.58Z" /></g><path class="shp15" d="M524.31 712.36L503.15 625.66" /></g><g ><path class="shp13" d="M248.11 663.14L202.34 594.75L188.16 597.71C195.38 622.04 201.38 639.02 206.15 648.65" /><path class="shp13" d="M195.45 609.03L188.16 597.71C179.1 595.62 172.93 593.74 169.64 592.06C164.7 589.54 161.41 585.08 160.04 581.31C158.98 578.41 159.44 569.92 160.68 569.79C163.6 569.47 169.42 580.35 172.15 580.99C174.88 581.64 183.72 580.97 188.58 581.6C194.04 582.32 197.92 585.23 200.22 590.34L207.7 603.92" /><path class="shp14" d="M218.19 614.78L210.16 603.13L189.37 612.46L195.97 630.16" /><g ><path class="shp0" d="M397.22 583.97C374.89 568.09 352.2 569.9 329.14 589.4C296.9 616.67 275.42 671.69 268.21 671.69C263.21 671.69 232.19 632.13 213.67 607.92L191.65 619.69C205.53 662.08 235.79 734.18 281.08 734.18C304.76 734.18 340.92 706.43 389.56 650.95" /></g><g ><path class="shp15" d="M331.36 707.56L385.35 662.54" /></g></g><g ><path class="shp23" d="M400.45 588.21L432.63 622.7L436.85 582.83" /><path class="shp13" d="M426.3 553.4L435.35 573.24C437.78 580.82 433.97 586.33 423.91 589.76C412.88 593.53 403.98 591.6 397.22 583.97L394.83 552.83" /><path class="shp24" d="M396.35 572.63C404.29 582.58 413.48 588.29 423.91 589.76L412.54 606.62C406.41 603.16 399.59 594.73 392.08 581.31L396.35 572.63Z" /><path class="shp24" d="M434.4 570.52C433.13 577.63 429.63 584.04 423.91 589.76L436.85 599.55C438.83 594.67 439.71 588.43 439.48 580.83L434.4 570.52Z" /><path class="shp25" d="M439.71 521.36C445.41 543.18 443.98 556.84 435.43 562.36C422.6 570.63 400.27 558.04 398.99 553.94C397.7 549.83 391.87 514.89 400.24 512.27C415.12 507.61 435.34 507.41 439.71 521.36Z" /><g ><g ><g ><path class="shp26" d="M439.44 531.98C439.65 532.88 439.09 533.77 438.19 533.98C437.3 534.19 436.4 533.64 436.19 532.74C435.98 531.84 436.53 530.94 437.43 530.73C438.33 530.52 439.23 531.08 439.44 531.98Z" /></g><g ><path class="shp26" d="M436.58 522.22C437.14 522.31 439.66 522.57 439.12 523.81C438.89 524.36 438.01 524.34 437.52 524.32C437.01 524.29 436.48 524.21 436.01 524.38C436.14 524.53 436.25 524.7 436.32 524.89C436.47 525.26 435.24 525.3 435.1 525.3C433.87 525.3 432.38 525.07 430.88 526.08C431.85 522.54 435.66 522.09 436.58 522.22Z" /></g><g ><path class="shp26" d="M418.87 536.51C418.92 537.43 419.71 538.13 420.63 538.08C421.55 538.03 422.25 537.24 422.2 536.32C422.15 535.4 421.36 534.7 420.44 534.75C419.52 534.8 418.82 535.59 418.87 536.51Z" /></g><g ><path class="shp26" d="M413.92 529.9C412.72 530.55 411.71 531.42 411.98 532.43C412.2 533.23 412.99 533.02 413.48 532.63C414.29 531.98 415.22 531.49 416.21 531.17C415.77 531.53 415.52 532.1 415.55 532.67C418.66 532.37 421.38 529.68 421.72 526.56C421.69 526.79 419.68 528.03 419.38 528.17C417.62 528.98 415.67 528.96 413.92 529.9Z" /></g></g><path class="shp15" d="M431.12 533.93C434.16 541.58 435.13 545.74 434.05 546.41C432.97 547.08 430.52 547.37 426.71 547.27" /></g><path class="shp15" d="M431.29 564.26C422.62 567.61 414.48 566.24 406.88 560.15" /><path class="shp27" d="M423.91 556.57C424.68 553.2 427.84 551.51 433.39 551.51" /><g ><path class="shp26" d="M446.95 503.79C446.82 502.24 446.57 500.58 445.5 499.45C444.27 498.14 442.31 497.89 440.51 497.87C434.24 497.83 427.97 499.83 422.88 503.5C424.27 502.29 425.67 501.07 427.07 499.86C428.17 498.9 430.64 497.38 429.45 495.59C428.4 494.01 425.42 494.91 423.91 494.89C416.75 494.8 409.84 497.36 403.25 499.88C400 501.13 396.73 502.39 393.79 504.26C390.85 506.13 388.23 508.65 386.82 511.83C385.58 514.62 385.33 517.75 385.35 520.8C385.39 526.28 386.25 531.72 387.11 537.14C388.04 543.04 389.46 554.69 397.39 555.39C398.93 555.53 400.62 555.63 401.87 554.72C403.1 553.82 403.53 552.2 403.72 550.69C404.02 548.22 403.84 545.71 403.25 543.3C404.74 544.11 406.14 545.45 407.81 545.21C408.36 545.13 408.92 544.82 409.12 544.3C409.25 543.97 409.21 543.61 409.17 543.25C408.55 537.6 408.21 531.97 407.85 526.29C415.97 524.58 424.14 523.1 432.34 521.86C435.98 521.31 439.84 520.72 442.66 518.36C446.7 514.98 447.39 509.04 446.95 503.79Z" /></g><g ><path class="shp25" d="M405 545.49C403.65 542.16 401.29 538.15 397.6 540.41C396.3 541.21 395.57 542.91 395.06 544.56C393.37 550.06 397.32 558.53 402.71 557.75C405.34 557.37 406.8 554.25 407.87 551.67" /></g></g></g></g><g ><g ><g ><path class="shp28" d="M185.7 1120.14L249.94 812.17" /></g><g ><path class="shp28" d="M314.17 1120.14L249.94 812.17" /></g></g><g ><g ><path class="shp28" d="M834.45 1120.14L898.68 812.17" /></g><g ><path class="shp28" d="M962.91 1120.14L898.68 812.17" /></g></g><path class="shp29" d="M955.03 812.17L187.78 812.17L187.78 793.74L955.03 793.74L955.03 812.17Z" /><g ><g ><path class="shp30" d="M918.05 758.62L646.92 758.62C642.08 758.62 638.42 754.25 639.26 749.49L670.42 574.26C671.4 568.71 676.23 564.66 681.87 564.66L953 564.66C957.84 564.66 961.5 569.04 960.65 573.8L929.5 749.03C928.51 754.58 923.69 758.62 918.05 758.62Z" /></g><g ><path class="shp31" d="M924.35 758.62L653.22 758.62C648.38 758.62 644.72 754.25 645.57 749.49L676.72 574.26C677.71 568.71 682.53 564.66 688.17 564.66L959.3 564.66C964.14 564.66 967.8 569.04 966.95 573.8L935.8 749.03C934.81 754.58 929.99 758.62 924.35 758.62Z" /></g><g style="opacity: 0.451"><path class="shp32" d="M874.47 758.62L717.87 758.62C715.07 758.62 712.96 756.1 713.45 753.34L731.44 652.14C732.01 648.93 734.8 646.6 738.05 646.6L894.65 646.6C897.45 646.6 899.56 649.12 899.07 651.87L881.08 753.08C880.51 756.28 877.72 758.62 874.47 758.62Z" /></g><g ><path class="shp33" d="M878.22 758.62L721.62 758.62C718.82 758.62 716.71 756.1 717.2 753.34L735.19 652.14C735.76 648.93 738.55 646.6 741.8 646.6L898.4 646.6C901.2 646.6 903.31 649.12 902.82 651.87L884.83 753.08C884.26 756.28 881.47 758.62 878.22 758.62Z" /></g><g ><path class="shp34" d="M779.95 699.1L843.5 699.1L843.5 758.62L779.95 758.62L779.95 699.1Z" /></g><g ><g ><path fill-rule="evenodd" class="shp30" d="M859.9 784.08L796.31 784.08L779.95 716.2L779.95 699.1L839.87 699.1L859.9 784.08ZM833.46 747.41C831.29 737.17 823.76 728.86 816.64 728.86C809.52 728.86 805.5 737.17 807.67 747.41C809.83 757.66 817.36 765.97 824.49 765.97C831.61 765.97 835.62 757.66 833.46 747.41Z" /></g></g><g ><path class="shp30" d="M744.9 784.08L887.27 784.08L887.27 793.74L735.23 793.74C735.23 788.4 739.56 784.08 744.9 784.08Z" /></g><g ><path class="shp31" d="M773.45 784.08L887.27 784.08L887.27 793.74L773.45 793.74L773.45 784.08Z" /></g><g ><g ><path fill-rule="evenodd" class="shp35" d="M863.58 784.08L799.99 784.08L779.95 699.1L843.54 699.1L863.58 784.08ZM836.91 747.41C834.74 737.17 827.21 728.86 820.09 728.86C812.96 728.86 808.95 737.17 811.11 747.41C813.28 757.66 820.81 765.97 827.93 765.97C835.06 765.97 839.07 757.66 836.91 747.41Z" /></g></g><g style="opacity: 0.651"><g ><path class="shp36" d="M695.04 581.92L691.28 603.1L695.04 603.1L698.81 581.92L695.04 581.92Z" /></g><g ><path class="shp36" d="M705.94 581.92L702.18 603.1L705.94 603.1L709.71 581.92L705.94 581.92Z" /></g><g ><path class="shp36" d="M716.84 581.92L713.08 603.1L716.84 603.1L720.61 581.92L716.84 581.92Z" /></g><g ><path class="shp36" d="M727.74 581.92L723.98 603.1L727.74 603.1L731.51 581.92L727.74 581.92Z" /></g><g ><path class="shp36" d="M738.64 581.92L734.88 603.1L738.64 603.1L742.41 581.92L738.64 581.92Z" /></g></g><g style="opacity: 0.651"><g ><path class="shp36" d="M838.1 581.92L834.34 603.1L838.1 603.1L841.87 581.92L838.1 581.92Z" /></g><g ><path class="shp36" d="M849.56 581.92L845.79 603.1L849.56 603.1L853.32 581.92L849.56 581.92Z" /></g><g ><path class="shp36" d="M861.01 581.92L857.24 603.1L861.01 603.1L864.78 581.92L861.01 581.92Z" /></g><g ><path class="shp36" d="M872.46 581.92L868.7 603.1L872.46 603.1L876.23 581.92L872.46 581.92Z" /></g><g ><path class="shp36" d="M883.92 581.92L880.15 603.1L883.92 603.1L887.68 581.92L883.92 581.92Z" /></g><g ><path class="shp36" d="M895.37 581.92L891.61 603.1L895.37 603.1L899.14 581.92L895.37 581.92Z" /></g><g ><path class="shp36" d="M906.83 581.92L903.06 603.1L906.83 603.1L910.59 581.92L906.83 581.92Z" /></g><g ><path class="shp36" d="M918.28 581.92L914.51 603.1L918.28 603.1L922.05 581.92L918.28 581.92Z" /></g><g ><path class="shp36" d="M929.73 581.92L925.97 603.1L929.73 603.1L933.5 581.92L929.73 581.92Z" /></g><g ><path class="shp36" d="M941.19 581.92L937.42 603.1L941.19 603.1L944.95 581.92L941.19 581.92Z" /></g></g></g><g ><g style="opacity: 0.549"><path class="shp37" d="M403.9 745.73C405.08 745.51 405.91 745.07 406.39 744.4C407.88 742.34 405.42 740.15 403.81 739.13C401.76 737.82 398.93 737.37 397.94 734.85C396.82 732 398.76 728.85 401.11 727.3C403.09 725.99 405.4 725.33 407.62 724.5C410.09 723.57 412.6 722.08 414.05 719.76C415.86 716.87 415.49 713.14 415.73 709.88C416.66 697.11 429.7 690.79 440.7 690.53C446.19 690.4 454.59 692.36 458.24 696.63C459.47 698.07 460.4 699.77 460.75 701.63C461.3 704.51 460.18 707.17 458.31 709.32C456.43 711.48 453.83 712.74 451.77 714.68C449.64 716.69 451.16 718.8 450.67 721.19C450.13 723.86 448.34 724.99 446.03 726.28C441.15 729 435.41 729.68 430.11 731.16C428.45 731.62 426.78 732.18 425.45 733.25C423.71 734.65 422.73 736.74 421.42 738.53C419.03 741.8 415.39 744.13 411.43 744.94" /></g><g ><g ><path class="shp38" d="M434.48 777.86L424.05 777.86L424.05 772.89L434.48 772.89C437.84 772.89 440.57 770.16 440.57 766.8L440.57 758.23C440.57 754.87 437.84 752.14 434.48 752.14L424.05 752.14L424.05 747.16L434.48 747.16C440.58 747.16 445.54 752.13 445.54 758.23L445.54 766.8C445.54 772.9 440.58 777.86 434.48 777.86Z" /></g></g><path class="shp38" d="M419.62 790.95L402.05 790.95C395.28 790.95 389.8 785.46 389.8 778.7L389.8 740.12L431.87 740.12L431.87 778.7C431.87 785.46 426.39 790.95 419.62 790.95Z" /><g ><path class="shp39" d="M382.99 783.85C383.26 790.44 388.52 793.74 398.77 793.74L422.89 793.74C433.14 793.74 438.41 790.44 438.68 783.85L382.99 783.85Z" /></g></g><g ><g ><g ><path class="shp40" d="M721.06 793.74L498.5 793.74L498.5 789.79L721.06 789.79L721.06 793.74Z" /><path class="shp40" d="M522.06 789.79L506.11 789.79L506.11 786.6L522.06 786.6L522.06 789.79Z" /><path class="shp40" d="M546.2 789.79L530.25 789.79L530.25 786.6L546.2 786.6L546.2 789.79Z" /><path class="shp40" d="M570.35 789.79L554.4 789.79L554.4 786.6L570.35 786.6L570.35 789.79Z" /><path class="shp40" d="M594.49 789.79L578.54 789.79L578.54 786.6L594.49 786.6L594.49 789.79Z" /><path class="shp40" d="M618.63 789.79L602.68 789.79L602.68 786.6L618.63 786.6L618.63 789.79Z" /><path class="shp40" d="M642.77 789.79L626.82 789.79L626.82 786.6L642.77 786.6L642.77 789.79Z" /><path class="shp40" d="M666.92 789.79L650.97 789.79L650.97 786.6L666.92 786.6L666.92 789.79Z" /><path class="shp40" d="M691.06 789.79L675.11 789.79L675.11 786.6L691.06 786.6L691.06 789.79Z" /><path class="shp40" d="M715.2 789.79L699.25 789.79L699.25 786.6L715.2 786.6L715.2 789.79Z" /></g></g><g ><g ><path class="shp6" d="M723.98 793.74L501.42 793.74L501.42 789.79L723.98 789.79L723.98 793.74Z" /><path class="shp6" d="M524.98 789.79L509.03 789.79L509.03 786.6L524.98 786.6L524.98 789.79Z" /><path class="shp6" d="M549.12 789.79L533.17 789.79L533.17 786.6L549.12 786.6L549.12 789.79Z" /><path class="shp6" d="M573.26 789.79L557.31 789.79L557.31 786.6L573.26 786.6L573.26 789.79Z" /><path class="shp6" d="M597.4 789.79L581.45 789.79L581.45 786.6L597.4 786.6L597.4 789.79Z" /><path class="shp6" d="M621.54 789.79L605.6 789.79L605.6 786.6L621.54 786.6L621.54 789.79Z" /><path class="shp6" d="M645.69 789.79L629.74 789.79L629.74 786.6L645.69 786.6L645.69 789.79Z" /><path class="shp6" d="M669.83 789.79L653.88 789.79L653.88 786.6L669.83 786.6L669.83 789.79Z" /><path class="shp6" d="M693.97 789.79L678.02 789.79L678.02 786.6L693.97 786.6L693.97 789.79Z" /><path class="shp6" d="M718.11 789.79L702.16 789.79L702.16 786.6L718.11 786.6L718.11 789.79Z" /></g></g></g></g></g></g></svg>