<svg version="1.2" baseProfile="tiny-ps" xmlns="http://www.w3.org/2000/svg" viewBox="0 0 1000 1000" width="1000" height="1000"><title>sun</title><style>tspan { white-space:pre }.shp0 { fill: #ffffff } </style><path fill-rule="evenodd" class="shp0" d="M736.76 490.89C736.76 626.5 626.43 736.8 490.87 736.8C355.28 736.8 244.98 626.48 244.98 490.89C244.98 355.3 355.28 244.98 490.87 244.98C626.43 244.98 736.76 355.28 736.76 490.89ZM490.87 172.7C464.37 172.7 442.89 151.22 442.89 124.74L442.89 47.98C442.89 21.48 464.37 0 490.87 0C517.37 0 538.85 21.48 538.85 47.98L538.85 124.74C538.85 151.22 517.35 172.7 490.87 172.7ZM715.83 265.89C697.11 247.15 697.11 216.78 715.83 198.04L770.11 143.76C788.83 125.04 819.22 125.04 837.96 143.76C856.7 162.5 856.7 192.89 837.96 211.61L783.67 265.89C764.96 284.63 734.59 284.63 715.83 265.89ZM538.85 857L538.85 933.74C538.85 960.26 517.37 981.74 490.87 981.74C464.37 981.74 442.89 960.26 442.89 933.74L442.89 857C442.89 830.5 464.37 809.02 490.87 809.02C517.35 809.02 538.85 830.5 538.85 857ZM265.89 783.67L211.61 837.98C192.89 856.7 162.5 856.7 143.76 837.98C125.02 819.26 125.04 788.85 143.76 770.13L198.04 715.87C216.78 697.11 247.15 697.11 265.89 715.87C284.63 734.57 284.63 764.96 265.89 783.67ZM809.02 490.87C809.02 464.37 830.5 442.89 857 442.89L933.76 442.89C960.26 442.89 981.74 464.37 981.74 490.87C981.74 517.37 960.26 538.83 933.76 538.83L857 538.83C830.5 538.83 809.02 517.37 809.02 490.87ZM124.74 538.83L47.98 538.83C21.48 538.83 0 517.37 0 490.87C0 464.37 21.48 442.89 47.98 442.89L124.72 442.89C151.22 442.89 172.7 464.37 172.7 490.87C172.7 517.37 151.22 538.83 124.74 538.83ZM715.83 715.87C734.57 697.15 764.96 697.15 783.67 715.87L837.96 770.15C856.7 788.85 856.7 819.26 837.96 837.98C819.22 856.7 788.85 856.7 770.11 837.98L715.83 783.7C697.09 764.96 697.09 734.59 715.83 715.87ZM198.04 265.89L143.76 211.61C125.02 192.89 125.02 162.5 143.76 143.78C162.5 125.04 192.87 125.04 211.61 143.78L265.89 198.04C284.63 216.78 284.63 247.15 265.89 265.89C247.15 284.65 216.78 284.65 198.04 265.89Z" /></svg>