<svg version="1.2" baseProfile="tiny-ps" xmlns="http://www.w3.org/2000/svg" viewBox="0 0 512 512" width="512" height="512"><title>file</title><style>tspan { white-space:pre }.shp0 { fill: #ffffff } </style><g ><path fill-rule="evenodd" class="shp0" d="M433.36 290.77L221.23 78.64L295.48 4.39C301.34 -1.46 310.83 -1.46 316.69 4.39L507.61 195.31C513.46 201.17 513.46 210.67 507.61 216.53L433.36 290.77ZM153.62 485.62C136.6 502.63 114.01 512 90 512C65.99 512 43.4 502.63 26.39 485.61C9.37 468.6 0 446.01 0 422C0 372.37 40.38 332 90 332C113.59 332 160.27 286.42 160.27 256.99C160.27 252.09 158.87 248.41 155.88 245.42C148.24 237.78 147.65 237.19 147.6 237.15C136.29 225.83 130.07 210.77 130.07 194.71C130.07 178.64 136.29 163.58 147.59 152.28L200.02 99.85L412.15 311.98L359.72 364.41C348.43 375.71 333.36 381.93 317.3 381.93C301.23 381.93 286.17 375.71 274.87 364.41C274.84 364.38 274.81 364.35 274.78 364.32C274.76 364.3 273.99 363.53 266.59 356.13C259.53 349.07 247.75 351.86 239.11 355.44C209.22 367.82 180 404.02 180 422C180 446.01 170.63 468.6 153.62 485.62ZM90 437C98.28 437 105 430.28 105 422C105 413.72 98.28 407 90 407C81.72 407 75 413.72 75 422C75 430.29 81.72 437 90 437Z" /></g></svg>